<svg width="72" height="74" viewBox="0 0 72 74" fill="none" xmlns="http://www.w3.org/2000/svg">
<g filter="url(#filter0_d_27_133)">
<path d="M37.875 32.1811V21.8166H42.025C51.9181 21.8166 59.9666 13.768 59.9666 3.875C59.9666 2.8395 59.1271 2 58.0916 2H52.0646C45.0369 2 38.9411 6.06275 35.9996 11.9622C33.0576 6.06262 26.9615 2 19.9334 2H13.9084C12.8729 2 12.0334 2.8395 12.0334 3.875C12.0334 13.7681 20.082 21.8166 29.975 21.8166H34.125V32.1811C17.3249 33.1521 4 47.0815 4 64.125C4 65.1605 4.8395 66 5.875 66H66.125C67.1605 66 68 65.1605 68 64.125C68 47.0815 54.6751 33.1521 37.875 32.1811V32.1811ZM52.0646 5.75H56.0933C55.1726 12.692 49.2145 18.0666 42.025 18.0666H37.9981C38.9174 11.1243 44.8751 5.75 52.0646 5.75V5.75ZM29.975 18.0666C22.7854 18.0666 16.8272 12.692 15.9067 5.75H19.9334C27.123 5.75 33.0811 11.1246 34.0016 18.0666H29.975ZM7.8105 62.25C8.7385 47.9209 19.2449 40.245 26.0917 37.6657V42.3778C26.0917 42.9499 25.8689 43.4879 25.4641 43.8926L19.4391 49.9176C17.1423 52.2145 17.1423 55.9519 19.4391 58.2487L23.44 62.25H7.8105ZM28.7434 62.25L22.0906 55.5973C21.2543 54.7609 21.2534 53.4065 22.0906 52.5692L28.1156 46.5444C29.2288 45.4314 29.8417 43.9516 29.8417 42.3778V36.5489C31.8536 36.1014 33.9191 35.875 36 35.875C40.9144 35.875 45.6772 37.1336 49.9062 39.5337L39.5223 49.9178C37.2226 52.2174 37.2178 55.9449 39.5223 58.2489L43.5234 62.25H28.7434ZM48.8266 62.25L42.1739 55.5971C41.3382 54.7616 41.3371 53.4062 42.1739 52.5692L53.1001 41.6431C59.6121 46.6034 63.6477 54.1131 64.1879 62.2499H48.8266V62.25Z" fill="black"/>
</g>
<defs>
<filter id="filter0_d_27_133" x="-2" y="0" width="76" height="76" filterUnits="userSpaceOnUse" color-interpolation-filters="sRGB">
<feFlood flood-opacity="0" result="BackgroundImageFix"/>
<feColorMatrix in="SourceAlpha" type="matrix" values="0 0 0 0 0 0 0 0 0 0 0 0 0 0 0 0 0 0 127 0" result="hardAlpha"/>
<feOffset dy="4"/>
<feGaussianBlur stdDeviation="2"/>
<feComposite in2="hardAlpha" operator="out"/>
<feColorMatrix type="matrix" values="0 0 0 0 0 0 0 0 0 0 0 0 0 0 0 0 0 0 0.25 0"/>
<feBlend mode="normal" in2="BackgroundImageFix" result="effect1_dropShadow_27_133"/>
<feBlend mode="normal" in="SourceGraphic" in2="effect1_dropShadow_27_133" result="shape"/>
</filter>
</defs>
</svg>
