<svg width="41" height="41" viewBox="0 0 41 41" fill="none" xmlns="http://www.w3.org/2000/svg">
<path d="M37.5484 3.45149C37.3352 3.23811 37.0378 3.13034 36.7376 3.15811C36.6123 3.16949 33.6208 3.45399 29.5182 4.83105C16.1663 8.94319 7.32971 21.8899 3.22062 31.2558C2.96197 31.8742 3.48455 32.7021 4.26673 32.6337L8.80532 32.1921L8.36383 36.7304C8.31546 37.3827 8.9488 38.0698 9.74181 37.7764C26.0466 30.3472 35.9919 18.9759 37.8419 4.26225C37.8693 3.96183 37.7618 3.66473 37.5484 3.45149ZM24.4105 25.7881C22.6089 27.4277 20.8329 28.8371 19.1913 30.0244V12.7211C20.9122 11.3108 22.6957 10.1677 24.4105 9.24483V25.7881ZM14.4935 33.0991C12.8801 34.047 11.5183 34.7389 10.5551 35.1955L10.9477 31.1597C11.006 30.6346 10.5202 29.9703 9.83794 30.05L5.80337 30.4424C7.16638 27.5506 10.8373 20.8176 17.159 14.5514V31.4322C16.1848 32.0781 15.286 32.6335 14.4935 33.0991ZM34.2231 10.8908C33.0298 14.4275 30.7122 19.5335 26.4428 23.8442V8.23247C29.2239 6.88929 33.4729 5.6853 35.6337 5.36605C35.4266 6.57952 35.0109 8.55613 34.2231 10.8908Z" fill="white"/>
</svg>
