<svg width="41" height="41" viewBox="0 0 41 41" fill="none" xmlns="http://www.w3.org/2000/svg">
<path d="M29.3552 23.9785C26.9439 23.9785 24.9823 25.9402 24.9823 28.3515C24.9823 30.7628 26.9439 32.7245 29.3552 32.7245C31.767 32.7245 33.7282 30.7628 33.7282 28.3515C33.7282 25.9402 31.7666 23.9785 29.3552 23.9785ZM29.3552 30.538C28.1494 30.538 27.1687 29.5573 27.1687 28.3515C27.1687 27.1457 28.1494 26.165 29.3552 26.165C30.5611 26.165 31.5417 27.1457 31.5417 28.3515C31.5417 29.5574 30.5611 30.538 29.3552 30.538Z" fill="white"/>
<path d="M14.4142 23.9785C12.0029 23.9785 10.0412 25.9402 10.0412 28.3515C10.0412 30.7628 12.0029 32.7245 14.4142 32.7245C16.8256 32.7245 18.7872 30.7628 18.7872 28.3515C18.7872 25.9402 16.8256 23.9785 14.4142 23.9785ZM14.4142 30.538C13.2084 30.538 12.2277 29.5573 12.2277 28.3515C12.2277 27.1457 13.2084 26.165 14.4142 26.165C15.6197 26.165 16.6007 27.1457 16.6007 28.3515C16.6007 29.5574 15.6201 30.538 14.4142 30.538Z" fill="white"/>
<path d="M32.3001 11.4616C32.1142 11.0925 31.7363 10.8596 31.3231 10.8596H25.5653V13.0461H30.6489L33.6258 18.9671L35.5798 17.9846L32.3001 11.4616Z" fill="white"/>
<path d="M26.0755 27.2947H17.8033V29.4812H26.0755V27.2947Z" fill="white"/>
<path d="M11.1345 27.2947H7.3446C6.74074 27.2947 6.25139 27.7842 6.25139 28.388C6.25139 28.9918 6.74081 29.4812 7.3446 29.4812H11.1345C11.7384 29.4812 12.2277 28.9917 12.2277 28.388C12.2277 27.7841 11.7383 27.2947 11.1345 27.2947Z" fill="white"/>
<path d="M37.6166 20.6113L35.4662 17.8418C35.2596 17.575 34.9407 17.419 34.6029 17.419H26.6586V9.76631C26.6586 9.16245 26.1692 8.6731 25.5654 8.6731H7.3446C6.74074 8.6731 6.25139 9.16251 6.25139 9.76631C6.25139 10.3701 6.74081 10.8595 7.3446 10.8595H24.4721V18.5122C24.4721 19.1161 24.9615 19.6054 25.5653 19.6054H34.0675L35.6596 21.6564V27.2946H32.635C32.0311 27.2946 31.5417 27.784 31.5417 28.3878C31.5417 28.9917 32.0312 29.481 32.635 29.481H36.7528C37.3567 29.481 37.8461 28.9916 37.8461 28.3878V21.2819C37.8461 21.0391 37.7652 20.803 37.6166 20.6113Z" fill="white"/>
<path d="M11.0616 21.7556H6.03266C5.4288 21.7556 4.93945 22.245 4.93945 22.8488C4.93945 23.4527 5.42887 23.942 6.03266 23.942H11.0616C11.6654 23.942 12.1548 23.4526 12.1548 22.8488C12.1548 22.245 11.6654 21.7556 11.0616 21.7556Z" fill="white"/>
<path d="M13.5761 17.4555H4.24702C3.64323 17.4555 3.15381 17.9449 3.15381 18.5488C3.15381 19.1526 3.64323 19.642 4.24702 19.642H13.5761C14.1799 19.642 14.6693 19.1526 14.6693 18.5488C14.6693 17.945 14.1799 17.4555 13.5761 17.4555Z" fill="white"/>
<path d="M15.3617 13.1554H6.03266C5.4288 13.1554 4.93945 13.6448 4.93945 14.2486C4.93945 14.8525 5.42887 15.3418 6.03266 15.3418H15.3617C15.9656 15.3418 16.4549 14.8524 16.4549 14.2486C16.455 13.6448 15.9656 13.1554 15.3617 13.1554Z" fill="white"/>
</svg>
