<svg width="41" height="41" viewBox="0 0 41 41" fill="none" xmlns="http://www.w3.org/2000/svg">
<g clip-path="url(#clip0_22_221)">
<path d="M36.8297 15.4181H29.5561C29.5568 15.4117 29.5579 15.4054 29.5586 15.399C30.405 14.6708 31.0815 13.8061 31.5728 12.8235C31.7304 12.5085 31.7136 12.1343 31.5284 11.8347C31.3431 11.535 31.016 11.3526 30.6637 11.3526H29.0948C28.7544 10.3896 28.2576 9.50032 27.6109 8.69739C27.6938 7.58513 27.5607 6.49687 27.2137 5.45596C27.1023 5.12178 26.8258 4.86911 26.483 4.7882C26.14 4.70723 25.7799 4.80968 25.5308 5.05869L24.4191 6.17034C23.5006 5.73126 22.5227 5.45413 21.4991 5.34308C20.7321 4.43952 19.848 3.72433 18.9217 3.26113C18.6067 3.10359 18.2326 3.1204 17.9328 3.30558C17.6332 3.49076 17.4508 3.8179 17.4508 4.17018V5.80681C16.4879 6.14716 15.5985 6.64417 14.7957 7.29079C13.6835 7.20792 12.5951 7.34107 11.5544 7.68806C11.2202 7.79945 10.9675 8.07598 10.8866 8.41877C10.8057 8.76155 10.908 9.12189 11.1571 9.37091L12.2685 10.4824C11.8292 11.4016 11.5519 12.3801 11.4411 13.4045C10.7601 13.9905 10.1893 14.6649 9.7362 15.4181H4.17018C3.60887 15.4181 3.15381 15.8732 3.15381 16.4345V20.5C3.15381 21.0613 3.60887 21.5164 4.17018 21.5164H5.25432V36.8298C5.25432 37.3911 5.70938 37.8462 6.2707 37.8462H10.3362C10.8975 37.8462 11.3526 37.3911 11.3526 36.8298V33.3847L20.5 29.7257L29.6473 33.3847V36.8297C29.6473 37.391 30.1024 37.8461 30.6637 37.8461H34.7292C35.2905 37.8461 35.7456 37.391 35.7456 36.8297V21.5163H36.8297C37.391 21.5163 37.8461 21.0613 37.8461 20.5V16.4344C37.8461 15.8731 37.391 15.4181 36.8297 15.4181V15.4181ZM13.0398 14.7226C13.2716 14.5431 13.4147 14.2723 13.4321 13.9796C13.5 12.8451 13.8237 11.7792 14.3943 10.8115C14.6298 10.4123 14.5652 9.9043 14.2375 9.57655L13.9638 9.30288C14.3037 9.29244 14.6479 9.30918 14.9951 9.35315C15.286 9.39001 15.5787 9.29949 15.7979 9.10468C16.6472 8.35026 17.631 7.82452 18.722 7.54197C19.1704 7.42597 19.4836 7.02138 19.4836 6.55819V6.15604C19.7255 6.39401 19.9584 6.65684 20.179 6.9417C20.3585 7.1735 20.6293 7.31647 20.922 7.33395C22.0564 7.40171 23.1223 7.72546 24.0901 8.29612C24.4894 8.53151 24.9973 8.46701 25.325 8.13933L25.5988 7.86559C25.6092 8.20539 25.5925 8.54967 25.5485 8.89694C25.5116 9.18782 25.6022 9.48047 25.797 9.69974C26.5514 10.549 27.0771 11.5328 27.3597 12.6238C27.4758 13.0722 27.8804 13.3854 28.3436 13.3854H28.7272C28.4937 13.6337 28.2377 13.8659 27.9602 14.0808C27.7284 14.2603 27.5854 14.5311 27.5679 14.8238C27.556 15.023 27.5354 15.2214 27.5072 15.4181H23.3743C23.4871 15.1 23.5491 14.758 23.5491 14.4018C23.5491 12.7205 22.1813 11.3526 20.5 11.3526C18.8187 11.3526 17.4508 12.7205 17.4508 14.4018C17.4508 14.758 17.5128 15.1 17.6257 15.4181H12.2733C12.5068 15.1697 12.7624 14.9375 13.0398 14.7226ZM21.5163 14.4017C21.5163 14.9621 21.0604 15.4181 20.5 15.4181C19.9395 15.4181 19.4836 14.9621 19.4836 14.4017C19.4836 13.8413 19.9395 13.3853 20.5 13.3853C21.0604 13.3853 21.5163 13.8413 21.5163 14.4017ZM9.31982 35.8134H7.28707V21.5163H9.31982C9.31982 21.5094 9.31989 31.5516 9.31982 35.8134ZM11.3526 31.1953V26.0667L17.7633 28.631L11.3526 31.1953ZM29.6473 31.1953L23.2367 28.631L29.6473 26.0667V31.1953ZM29.6473 23.8774L20.5 27.5363L11.3526 23.8774V21.5163H29.6473V23.8774ZM33.7129 35.8134H31.6801C31.6801 34.0105 31.6801 23.6904 31.6801 21.5163H33.7129V35.8134ZM35.8134 19.4836H5.18656V17.4508H35.8134V19.4836Z" fill="white"/>
</g>
<defs>
<clipPath id="clip0_22_221">
<rect width="34.6923" height="34.6923" fill="white" transform="translate(3.15381 3.15381)"/>
</clipPath>
</defs>
</svg>
