<svg width="12.000000" height="12.000000" viewBox="0 0 12 12" fill="none" xmlns="http://www.w3.org/2000/svg" xmlns:xlink="http://www.w3.org/1999/xlink">
	<desc>
			Created with Pixso.
	</desc>
	<defs>
		<clipPath id="clip91_1102">
			<rect id="phone" width="12.000000" height="12.000000" fill="white" fill-opacity="0"/>
		</clipPath>
	</defs>
	<rect id="phone" width="12.000000" height="12.000000" fill="#FFFFFF" fill-opacity="0"/>
	<g clip-path="url(#clip91_1102)">
		<path id="Vector" d="M11.974 9.29785C11.9401 9.19556 11.7241 9.04492 11.3263 8.84619C11.2185 8.78345 11.0651 8.69849 10.8663 8.59058C10.6675 8.48242 10.4869 8.38306 10.3251 8.29199C10.163 8.20117 10.0111 8.11304 9.86914 8.02808C9.84644 8.01099 9.77539 7.96143 9.65613 7.87891C9.53662 7.79639 9.43591 7.73535 9.35339 7.69556C9.27112 7.65601 9.19006 7.63599 9.11047 7.63599C8.99683 7.63599 8.85498 7.71704 8.68457 7.87891C8.51416 8.04077 8.35791 8.2168 8.21594 8.40723C8.07397 8.59766 7.92334 8.77368 7.7644 8.93579C7.60522 9.09766 7.47449 9.17871 7.37231 9.17871C7.32104 9.17871 7.25708 9.16431 7.18042 9.13599C7.10388 9.10767 7.04553 9.0835 7.00562 9.06372C6.96594 9.0437 6.89795 9.00415 6.80127 8.94434C6.70447 8.88452 6.65051 8.85181 6.63928 8.84619C5.86084 8.41431 5.19336 7.91992 4.63647 7.36328C4.07971 6.8064 3.58533 6.13892 3.15356 5.36035C3.14795 5.34912 3.11511 5.29492 3.05554 5.19849C2.99585 5.10181 2.95605 5.03369 2.93616 4.9939C2.91626 4.9541 2.89209 4.896 2.86377 4.81934C2.83545 4.74243 2.82117 4.67871 2.82117 4.62744C2.82117 4.52515 2.90222 4.39453 3.06409 4.23535C3.22607 4.07642 3.40222 3.92578 3.59253 3.78369C3.78284 3.64185 3.95886 3.4856 4.12085 3.31519C4.28271 3.14478 4.36377 3.00269 4.36377 2.88916C4.36377 2.80957 4.34387 2.72852 4.30408 2.64624C4.2644 2.56372 4.20325 2.46289 4.12085 2.34351C4.03845 2.22437 3.98877 2.15332 3.97168 2.13037C3.88647 1.98853 3.79858 1.83667 3.70752 1.67456C3.61646 1.5127 3.51721 1.33228 3.40918 1.1333C3.30127 0.93457 3.21606 0.78125 3.15356 0.67334C2.95471 0.275635 2.8042 0.0595703 2.7019 0.0256348C2.66211 0.00854492 2.60242 0 2.52295 0C2.36951 0 2.16919 0.0283203 1.92212 0.0852051C1.67493 0.14209 1.48035 0.20166 1.33826 0.26416C1.0542 0.383545 0.753052 0.72998 0.434814 1.30371C0.145142 1.83789 0.000244141 2.36621 0.000244141 2.88892C0.000244141 3.04224 0.0101318 3.19141 0.0300293 3.33643C0.0499268 3.4812 0.0854492 3.64453 0.136719 3.82642C0.187744 4.0083 0.229004 4.14331 0.260132 4.2312C0.291382 4.31934 0.349609 4.47681 0.434814 4.70435C0.52002 4.93164 0.571167 5.0708 0.588257 5.12183C0.787109 5.67871 1.02283 6.17578 1.29553 6.61328C1.74414 7.34058 2.35645 8.09204 3.13196 8.86768C3.90759 9.64307 4.65894 10.2554 5.38623 10.7043C5.82373 10.9768 6.32104 11.2126 6.87769 11.4116C6.92896 11.4287 7.06799 11.4797 7.29529 11.5652C7.52246 11.6504 7.68018 11.7085 7.76819 11.7397C7.8562 11.771 7.99133 11.8123 8.17297 11.8635C8.35498 11.9148 8.51819 11.9502 8.66309 11.9702C8.80811 11.99 8.95715 12 9.11047 12C9.63318 12 10.1617 11.855 10.6958 11.5654C11.2694 11.2473 11.616 10.946 11.7352 10.6619C11.798 10.5198 11.8574 10.3252 11.9142 10.0781C11.9712 9.83105 11.9995 9.63062 11.9995 9.47729C11.9998 9.39746 11.9911 9.33789 11.974 9.29785Z" fill="#292929" fill-opacity="1.000000" fill-rule="nonzero"/>
	</g>
</svg>
