<svg width="0" height="0" class="hidden">
  <symbol fill="none" xmlns="http://www.w3.org/2000/svg" xmlns:xlink="http://www.w3.org/1999/xlink" viewBox="0 0 32 32" id="length">
    <desc>Created with Pixso.</desc>
    <defs>
      <clipPath id="clip38_279">
        <rect id="length" width="32.000000" height="32.000000" fill="white" fill-opacity="0"></rect>
      </clipPath>
    </defs>
    <rect id="length" width="32.000000" height="32.000000" fill="#FFFFFF" fill-opacity="0"></rect>
    <g clip-path="url(#clip38_279)">
      <path id="Vector" d="M11.0064 13.0953L11.0072 9L4 16.0096L11.0072 23.0184L11.0064 18.9232L20.992 18.9248L20.992 23.0184L28 16.0096L20.992 9L20.992 13.0953L11.0064 13.0953Z" fill="#010002" fill-opacity="1.000000" fill-rule="nonzero"></path>
    </g>
  </symbol>
  <symbol fill="none" xmlns="http://www.w3.org/2000/svg" xmlns:xlink="http://www.w3.org/1999/xlink" viewBox="0 0 32 32" id="life time">
    <desc>Created with Pixso.</desc>
    <defs>
      <clipPath id="clip38_265">
        <rect id="life time" width="32.000000" height="32.000000" fill="white" fill-opacity="0"></rect>
      </clipPath>
    </defs>
    <rect id="life time" width="32.000000" height="32.000000" fill="#FFFFFF" fill-opacity="0"></rect>
    <g clip-path="url(#clip38_265)">
      <path id="Vector" d="M24 26L23 26L23 22.7271C23 21.099 22.307 19.541 21.097 18.453L19.404 16.9301C19.137 16.689 18.99 16.359 18.99 16C18.99 15.641 19.137 15.311 19.404 15.071L21.097 13.548C22.307 12.458 23 10.901 23 9.27295L23 6L24 6C24.553 6 25 5.552 25 5C25 4.448 24.553 4 24 4L8 4C7.44699 4 7 4.448 7 5C7 5.552 7.44699 6 8 6L9 6L9 9.27295C9 10.901 9.69299 12.459 10.903 13.547L12.596 15.0699C12.863 15.311 13.01 15.641 13.01 16C13.01 16.359 12.863 16.689 12.596 16.929L10.903 18.452C9.69299 19.542 9 21.099 9 22.7271L9 26L8 26C7.44699 26 7 26.448 7 27C7 27.552 7.44699 28 8 28L24 28C24.553 28 25 27.552 25 27C25 26.448 24.553 26 24 26ZM12 22.829C12 22.094 12.286 21.4041 12.806 20.884L15.47 18.22C15.763 17.927 16.238 17.927 16.531 18.22L19.195 20.884C19.715 21.4041 20.001 22.094 20.001 22.829L20.001 26L12 26L12 22.829Z" fill="#000000" fill-opacity="1.000000" fill-rule="nonzero"></path>
    </g>
  </symbol>
  <symbol fill="none" xmlns="http://www.w3.org/2000/svg" xmlns:xlink="http://www.w3.org/1999/xlink" viewBox="0 0 32 32" id="thickness">
    <desc>Created with Pixso.</desc>
    <defs>
      <clipPath id="clip38_305">
        <rect id="thickness" width="32.000000" height="32.000000" fill="white" fill-opacity="0"></rect>
      </clipPath>
    </defs>
    <rect id="thickness" width="32.000000" height="32.000000" fill="#FFFFFF" fill-opacity="0"></rect>
    <g clip-path="url(#clip38_305)">
      <path id="Vector" d="M26.5938 9.48438L5.45312 9.48438C4.67651 9.48438 4.04688 10.114 4.04688 10.8906C4.04688 11.6672 4.67651 12.2969 5.45312 12.2969L26.5938 12.2969C27.3704 12.2969 28 11.6672 28 10.8906C28 10.114 27.3704 9.48438 26.5938 9.48438Z" fill="#000000" fill-opacity="1.000000" fill-rule="nonzero"></path>
      <path id="Vector" d="M27.0625 4L4.9375 4C4.41971 4 4 4.41968 4 4.9375C4 5.45532 4.41971 5.875 4.9375 5.875L27.0625 5.875C27.5803 5.875 28 5.45532 28 4.9375C28 4.41968 27.5803 4 27.0625 4Z" fill="#000000" fill-opacity="1.000000" fill-rule="nonzero"></path>
      <path id="Vector" d="M25.6562 23.3125L6.39062 23.3125C5.09622 23.3125 4.04688 24.3618 4.04688 25.6562C4.04688 26.9507 5.09622 28 6.39062 28L25.6562 28C26.9507 28 28 26.9507 28 25.6562C28 24.3618 26.9507 23.3125 25.6562 23.3125Z" fill="#000000" fill-opacity="1.000000" fill-rule="nonzero"></path>
      <path id="Vector" d="M26.125 15.9062L5.92188 15.9062C4.88635 15.9062 4.04688 16.7457 4.04688 17.7812C4.04688 18.8168 4.88635 19.6562 5.92188 19.6562L26.125 19.6562C27.1605 19.6562 28 18.8168 28 17.7812C28 16.7457 27.1605 15.9062 26.125 15.9062Z" fill="#000000" fill-opacity="1.000000" fill-rule="nonzero"></path>
    </g>
  </symbol>
  <symbol fill="none" xmlns="http://www.w3.org/2000/svg" xmlns:xlink="http://www.w3.org/1999/xlink" viewBox="0 0 32 32" id="weight">
    <desc>Created with Pixso.</desc>
    <defs>
      <clipPath id="clip38_268">
        <rect id="weight " width="32.000000" height="32.000000" fill="white" fill-opacity="0"></rect>
      </clipPath>
    </defs>
    <rect id="weight " width="32.000000" height="32.000000" fill="#FFFFFF" fill-opacity="0"></rect>
    <g clip-path="url(#clip38_268)">
      <path id="Vector" d="M26.983 25.137L24.8878 12.6207C24.6908 11.4406 23.6687 10.5781 22.4724 10.5781L19.3245 10.5781C19.6937 9.93506 19.9047 9.19006 19.9047 8.39673C19.9047 5.97241 17.9328 4 15.5081 4C13.0838 4 11.1114 5.97241 11.1114 8.39673C11.1114 9.19006 11.3224 9.93506 11.6916 10.5781L8.54367 10.5781C7.34689 10.5781 6.32532 11.4417 6.12827 12.6218L4.03366 25.1396C3.91461 25.8492 4.11478 26.5797 4.58005 27.1287C5.04587 27.6782 5.729 28 6.44958 28L24.5686 28C25.2892 28 25.9723 27.6782 26.4381 27.1287C26.9029 26.5786 27.1025 25.8472 26.983 25.137ZM15.5086 6.56152C16.5203 6.56152 17.3438 7.38501 17.3438 8.39722C17.3438 9.40942 16.5203 10.2324 15.5086 10.2324C14.4964 10.2324 13.6729 9.40894 13.6729 8.39673C13.6729 7.3844 14.4964 6.56152 15.5086 6.56152Z" fill="#000000" fill-opacity="1.000000" fill-rule="nonzero"></path>
    </g>
  </symbol>
  <symbol fill="none" xmlns="http://www.w3.org/2000/svg" xmlns:xlink="http://www.w3.org/1999/xlink" viewBox="0 0 32 32" id="width">
    <desc>Created with Pixso.</desc>
    <defs>
      <clipPath id="clip38_321">
        <rect id="width" width="32.000000" height="32.000000" fill="white" fill-opacity="0"></rect>
      </clipPath>
    </defs>
    <rect id="width" width="32.000000" height="32.000000" fill="#FFFFFF" fill-opacity="0"></rect>
    <g clip-path="url(#clip38_321)">
      <path id="Vector" d="M10.4085 17.4797L7.51331 14.5834L7.51501 24.4948L17.4259 24.496L14.5295 21.6007L21.5915 14.541L24.4861 17.4357L24.4856 7.52417L14.5736 7.52307L17.4694 10.4188L10.4085 17.4797Z" fill="#010002" fill-opacity="1.000000" fill-rule="nonzero"></path>
    </g>
  </symbol>
</svg>